<?xml version="1.0" standalone="no"?>
<!DOCTYPE svg PUBLIC "-//W3C//DTD SVG 20010904//EN"
 "http://www.w3.org/TR/2001/REC-SVG-20010904/DTD/svg10.dtd">
<svg version="1.0" xmlns="http://www.w3.org/2000/svg"
 width="300.000000pt" height="300.000000pt" viewBox="0 0 300.000000 300.000000"
 preserveAspectRatio="xMidYMid meet">
<metadata>
Created by potrace 1.14, written by Peter Selinger 2001-2017
</metadata>
<g transform="translate(0.000000,300.000000) scale(0.100000,-0.100000)"
fill="#000000" stroke="none">
<path d="M440 2512 c-79 -4 -110 -26 -110 -80 0 -23 39 -121 115 -287 63 -139
115 -256 115 -259 0 -4 14 -37 31 -74 18 -37 49 -104 70 -150 22 -45 39 -85
39 -87 0 -3 -33 -5 -74 -5 -86 0 -106 -6 -106 -30 0 -22 37 -30 136 -30 72 0
75 -1 85 -27 6 -16 22 -50 35 -77 14 -26 24 -50 22 -52 -2 -1 -23 -4 -46 -5
-24 -2 -46 -7 -48 -11 -3 -4 -1 -8 5 -8 16 0 24 -40 11 -55 -7 -8 -23 -15 -36
-15 -32 0 -45 47 -19 67 17 12 16 13 -13 13 -18 0 -31 -3 -31 -7 4 -24 -3 -43
-15 -43 -7 0 -19 -6 -26 -14 -6 -8 -21 -16 -33 -18 -12 -2 49 -8 136 -12 l158
-8 14 -29 c8 -15 15 -35 15 -44 0 -8 6 -16 13 -16 34 -4 -89 -18 -160 -18
l-82 -1 -12 -35 c-7 -19 -20 -35 -29 -36 -10 0 -9 -3 5 -9 15 -6 4 -9 -40 -12
-33 -2 30 -5 140 -6 110 -1 210 -5 222 -8 14 -4 27 -20 36 -49 l15 -42 -106
-7 c-58 -3 -143 -6 -189 -6 -45 0 -83 -4 -83 -9 0 -4 81 -10 180 -13 100 -3
184 -8 187 -11 3 -4 0 -14 -8 -24 -12 -14 -12 -16 0 -8 11 6 13 2 9 -19 -4
-22 -1 -27 21 -32 65 -14 75 -21 92 -62 l18 -42 -49 0 c-50 0 -74 -15 -49 -31
8 -5 38 -9 67 -9 47 0 53 -3 62 -26 6 -14 10 -29 10 -34 0 -5 -55 -7 -122 -5
-83 3 -118 1 -111 -6 22 -22 152 -92 233 -126 46 -19 98 -44 115 -56 29 -21
40 -22 265 -22 225 0 236 1 265 22 17 12 72 38 123 58 149 60 334 186 420 286
l34 39 159 0 c146 0 161 2 179 20 23 23 25 40 8 63 -10 12 -39 17 -135 23 -96
5 -120 10 -116 20 4 12 -29 14 -185 14 l-191 0 17 45 c12 34 22 45 39 46 13 1
28 3 33 4 6 1 47 3 93 4 56 2 75 5 61 11 -30 12 -36 45 -12 75 l19 25 -75 0
c-42 0 -76 3 -76 6 0 4 12 26 27 50 l28 43 181 1 181 0 7 48 c5 39 11 50 36
64 53 30 79 138 45 184 -14 18 -14 18 -8 -3 9 -37 -78 -143 -118 -143 -10 0
-21 -5 -25 -11 -4 -7 -25 -9 -55 -7 -40 4 -47 3 -38 -8 10 -12 -7 -14 -96 -14
-94 0 -106 2 -101 16 3 9 6 18 6 20 0 2 37 4 81 4 79 0 81 1 75 23 -3 12 -6
25 -6 30 0 4 -25 7 -55 7 -30 0 -55 2 -55 5 0 2 5 16 12 30 9 21 18 25 54 25
38 0 45 4 59 30 l16 30 -46 0 -45 0 13 32 14 33 116 -2 117 -2 0 30 0 29 -100
0 c-55 0 -100 3 -100 8 1 13 28 57 34 55 3 -2 39 -3 80 -3 73 0 73 0 68 25 -4
24 -8 25 -69 25 -56 0 -64 2 -61 18 2 13 16 18 59 22 54 5 56 6 48 28 -6 16
-16 22 -39 22 -28 0 -31 2 -24 23 10 34 74 176 153 341 39 81 71 161 71 177 0
15 -11 41 -24 56 l-24 28 -315 0 c-300 0 -317 -1 -342 -20 -17 -13 -49 -69
-89 -155 -86 -186 -92 -199 -111 -250 -9 -25 -25 -59 -36 -76 -10 -17 -19 -37
-19 -43 0 -24 -43 -101 -53 -94 -5 3 -7 1 -3 -5 6 -9 -5 -49 -29 -105 -7 -16
-2 -18 50 -15 l58 3 32 75 c18 41 78 181 134 310 65 150 111 243 127 258 25
22 27 22 297 20 237 -3 272 -5 275 -19 3 -17 -205 -452 -219 -457 -5 -2 -7 -7
-4 -12 3 -4 -11 -39 -29 -76 -57 -114 -86 -185 -86 -209 0 -13 -15 -41 -33
-63 -18 -21 -48 -73 -66 -115 -18 -42 -38 -75 -43 -74 -6 1 -13 -4 -16 -12 -3
-9 0 -11 8 -6 9 5 9 1 -1 -16 -7 -13 -14 -26 -14 -29 -6 -26 -68 -139 -74
-135 -5 2 -8 -3 -7 -13 1 -11 -6 -17 -20 -16 -16 1 -22 -5 -21 -20 0 -12 -3
-34 -6 -51 l-7 -30 14 30 c9 17 15 39 16 50 0 13 3 16 11 8 7 -7 1 -30 -22
-76 -26 -52 -36 -64 -46 -55 -17 14 -17 29 1 22 22 -9 29 14 10 34 -15 14 -15
17 -2 20 9 2 15 14 15 35 l0 32 -15 -35 c-13 -33 -15 -34 -28 -16 -8 11 -11
22 -8 25 3 3 9 -1 14 -9 6 -8 10 -10 10 -4 0 5 -5 15 -10 20 -13 13 8 67 21
58 5 -3 6 1 3 9 -3 8 2 22 11 31 9 9 13 16 10 16 -4 0 2 16 14 36 12 19 21 42
21 50 0 8 4 14 8 14 5 0 14 18 21 39 12 40 50 96 51 74 0 -7 -5 -13 -11 -13
-6 0 -8 -9 -4 -22 5 -18 4 -20 -4 -8 -9 12 -11 9 -11 -16 0 -38 23 -73 35 -54
5 9 4 15 -3 18 -18 6 -14 22 4 22 12 0 14 3 6 13 -8 9 -8 23 -2 43 l10 29 -5
-32 c-4 -27 7 -43 29 -43 10 0 -9 68 -22 78 -10 7 -11 12 -4 12 10 0 10 5 1
23 -12 22 -12 22 10 3 12 -11 19 -26 16 -33 -2 -8 0 -11 5 -8 6 3 10 13 10 21
0 8 5 22 11 32 9 14 8 26 -6 51 -11 23 -13 31 -3 25 7 -5 18 -9 23 -9 16 -1 9
-49 -14 -96 -16 -32 -18 -46 -10 -53 9 -8 10 -7 4 3 -4 7 -4 16 1 20 14 10 34
49 34 66 0 8 4 15 9 15 4 0 6 11 3 25 -10 53 -22 55 -333 55 l-287 0 -19 -37
c-18 -38 -19 -38 -81 -39 -62 -2 -64 -1 -77 30 -8 17 -34 76 -59 132 -25 55
-46 104 -46 108 0 4 -14 37 -31 74 -17 37 -43 94 -59 127 -15 33 -31 70 -34
83 l-7 22 144 0 c154 0 157 1 157 50 0 42 -25 50 -149 50 -131 0 -211 8 -211
21 0 25 -86 198 -111 224 l-29 30 -253 0 c-138 0 -281 -1 -317 -3z m527 -115
c11 -12 50 -89 86 -172 167 -385 301 -696 377 -872 46 -106 86 -193 90 -193 3
0 44 87 89 193 46 105 87 197 92 203 8 10 109 20 109 10 0 -7 -69 -162 -108
-245 -22 -45 -29 -72 -25 -93 5 -24 2 -30 -15 -35 -14 -3 -31 -27 -49 -66 -46
-101 -57 -120 -75 -131 -27 -16 -49 2 -86 75 -49 94 -60 109 -77 103 -8 -4
-13 -10 -10 -14 3 -4 -4 -10 -14 -13 -16 -4 -27 8 -55 62 -41 78 -73 112 -85
92 -8 -13 -63 81 -124 209 -164 349 -378 770 -402 788 -22 17 -41 22 -91 22
l-64 0 17 -34 c12 -27 23 -35 53 -40 21 -3 47 -14 59 -23 11 -10 112 -209 224
-443 269 -562 270 -563 252 -556 -8 3 -17 1 -20 -4 -4 -6 -1 -10 5 -10 6 0 9
-4 5 -10 -3 -5 -12 -7 -20 -4 -8 4 -12 10 -10 15 3 4 -4 14 -16 21 -14 8 -69
109 -152 278 -141 287 -135 276 -142 268 -3 -3 33 -86 81 -184 171 -357 514
-1091 514 -1101 0 -9 -41 -1 -52 10 -6 8 -21 12 -33 9 -27 -5 -31 2 -87 123
-26 55 -86 181 -133 280 -48 99 -163 344 -257 545 -94 201 -231 493 -305 648
-74 156 -132 290 -129 297 7 20 68 23 331 18 220 -4 231 -5 252 -26z m1210
-812 c0 -8 -4 -12 -9 -9 -4 3 -8 9 -8 15 0 5 4 9 8 9 5 0 9 -7 9 -15z m-73
-26 c3 -3 1 -20 -5 -37 -10 -29 -15 -32 -50 -32 -66 0 -55 19 -318 -549 -72
-157 -110 -206 -165 -217 -63 -11 -105 19 -148 106 -35 70 -46 125 -23 125 5
0 26 -31 46 -70 44 -83 64 -105 96 -105 54 0 58 7 168 245 10 22 20 44 23 49
3 5 -9 7 -27 4 -17 -2 -31 -3 -31 -2 0 4 72 162 159 350 l60 129 58 5 c78 7
150 6 157 -1z m-544 -51 c0 -19 -25 -58 -36 -58 -11 0 -44 47 -44 62 0 2 18 3
40 3 22 0 40 -3 40 -7z m-326 -364 c20 -19 20 -23 0 -45 -13 -14 -21 -16 -35
-8 -21 11 -26 55 -6 62 20 9 25 8 41 -9z m725 -61 c-14 -17 -31 1 -22 24 4 10
9 11 19 2 11 -9 12 -15 3 -26z m-29 -27 c0 -3 -4 -8 -10 -11 -5 -3 -10 -1 -10
4 0 6 5 11 10 11 6 0 10 -2 10 -4z m-13 -68 c-17 -11 -27 -10 -27 3 0 5 5 7
10 4 6 -3 10 1 10 10 0 10 -5 13 -12 9 -7 -5 -8 -3 -3 6 6 10 11 9 22 -5 10
-15 10 -20 0 -27z m68 12 c3 -5 1 -18 -5 -27 -9 -15 -10 -14 -4 7 6 22 5 23
-10 11 -9 -7 -16 -9 -16 -4 0 21 24 30 35 13z m-134 -103 c-10 -9 -11 -8 -5 6
3 10 9 15 12 12 3 -3 0 -11 -7 -18z"/>
<path d="M1438 2371 c-18 -6 -27 -22 -21 -38 4 -10 36 -13 139 -13 113 0 136
3 141 16 3 8 1 20 -5 26 -10 10 -227 18 -254 9z"/>
<path d="M2168 2304 c-32 -17 -39 -29 -143 -259 -42 -93 -90 -196 -106 -228
-16 -32 -29 -60 -29 -63 0 -3 18 -4 41 -2 l41 3 69 155 c135 300 145 319 176
327 15 4 80 8 143 8 l115 0 17 30 c9 17 17 33 18 38 0 4 -71 7 -157 7 -120 -1
-165 -4 -185 -16z"/>
<path d="M1401 2034 c-40 -51 -6 -74 113 -74 73 0 89 3 106 20 17 17 19 24 9
43 -18 34 -27 37 -121 37 -81 0 -88 -2 -107 -26z"/>
<path d="M420 2003 c0 -5 -14 -9 -32 -10 -43 -3 -56 -18 -28 -33 17 -9 26 -8
46 5 21 13 34 45 19 45 -3 0 -5 -3 -5 -7z"/>
<path d="M2279 1903 c-63 -135 -68 -152 -41 -150 12 0 19 4 17 8 -3 3 4 25 15
47 11 23 20 46 20 52 0 6 5 8 12 4 6 -4 8 -3 5 3 -3 5 2 27 13 49 26 53 35 94
21 94 -6 0 -34 -48 -62 -107z"/>
<path d="M1657 1987 c-3 -8 1 -14 8 -14 7 0 11 6 8 14 -3 7 -6 13 -8 13 -2 0
-5 -6 -8 -13z"/>
<path d="M2380 1975 c-6 -8 -10 -22 -7 -32 3 -13 5 -11 6 7 1 20 3 22 11 10 7
-12 9 -10 7 8 -2 26 -1 26 -17 7z"/>
<path d="M2346 1931 c-4 -5 -2 -13 4 -16 6 -4 8 -14 6 -23 -3 -10 -1 -24 4
-32 6 -10 8 -1 5 29 -4 47 -9 58 -19 42z"/>
<path d="M2790 1900 c0 -5 5 -10 11 -10 5 0 7 5 4 10 -3 6 -8 10 -11 10 -2 0
-4 -4 -4 -10z"/>
<path d="M515 1698 c-22 -5 -65 -11 -95 -14 -30 -4 -62 -9 -70 -13 -8 -4 -52
-7 -96 -7 -57 1 -80 -2 -77 -10 5 -13 359 -25 403 -14 20 5 25 13 25 36 0 33
-18 37 -90 22z"/>
<path d="M2070 1345 c-21 -51 -28 -92 -18 -109 8 -13 13 -15 24 -6 18 16 45
70 34 70 -5 0 -7 7 -3 17 5 13 2 15 -16 10 -18 -4 -20 -3 -11 8 7 8 10 20 7
27 -3 8 -10 0 -17 -17z"/>
<path d="M2120 1319 c0 -5 5 -7 10 -4 6 3 10 8 10 11 0 2 -4 4 -10 4 -5 0 -10
-5 -10 -11z"/>
<path d="M2777 1094 c-3 -4 -17 -8 -29 -10 -105 -15 -149 -24 -164 -32 -9 -5
-26 -7 -38 -5 -17 4 -18 3 -6 -6 8 -6 61 -11 118 -11 88 0 105 3 122 20 11 11
17 26 14 35 -7 17 -8 18 -17 9z"/>
<path d="M562 773 c-7 -10 -10 -12 -7 -5 7 15 4 15 -31 2 -19 -8 -31 -7 -42 2
-13 11 -14 11 -7 -1 6 -11 3 -13 -19 -7 -14 3 -35 2 -46 -4 -12 -7 -20 -7 -20
-1 0 5 -12 9 -27 7 -16 -1 -36 2 -46 7 -52 25 -11 -51 43 -82 88 -49 194 -11
224 82 3 9 2 17 -2 17 -4 0 -13 -8 -20 -17z"/>
<path d="M604 593 c11 -21 -4 -41 -27 -36 -17 5 -19 3 -11 -7 16 -17 48 -9 52
14 2 10 -2 23 -9 30 -9 8 -10 8 -5 -1z"/>
<path d="M2558 543 c-14 -32 -134 -90 -162 -80 -21 8 -13 -23 9 -39 10 -8 36
-14 58 -14 68 0 117 44 117 105 0 23 -15 43 -22 28z"/>
<path d="M780 490 c0 -17 -4 -20 -21 -15 -13 4 -28 0 -41 -12 -12 -10 -18 -12
-14 -5 4 6 3 12 -3 12 -5 0 -11 -5 -13 -12 -2 -6 -10 -8 -17 -4 -7 5 -10 15
-7 23 3 8 1 11 -4 8 -17 -11 -22 -72 -8 -102 7 -15 30 -36 50 -46 68 -33 138
8 138 81 0 39 -17 75 -31 67 -5 -4 -8 -1 -7 6 2 6 -3 14 -9 16 -8 3 -13 -4
-13 -17z"/>
<path d="M2217 354 c-29 -34 -48 -45 -78 -50 -22 -4 -42 -11 -46 -17 -4 -6 0
-8 11 -4 10 4 15 3 11 -3 -11 -18 45 -32 82 -19 52 17 89 89 65 125 -4 8 -20
-3 -45 -32z"/>
</g>
</svg>
